<?xml version="1.0" encoding="UTF-8"?>
<svg xmlns="http://www.w3.org/2000/svg" xmlns:xlink="http://www.w3.org/1999/xlink" width="375pt" height="374.999991pt" viewBox="0 0 375 374.999991" version="1.2">
<defs>
<clipPath id="clip1">
  <path d="M 107.644531 333.734375 L 267 333.734375 L 267 341.625 L 107.644531 341.625 Z M 107.644531 333.734375 "/>
</clipPath>
<clipPath id="clip2">
  <path d="M 234 333.734375 L 234.765625 333.734375 L 234.765625 335.144531 L 234 335.144531 Z M 234 333.734375 "/>
</clipPath>
<clipPath id="clip3">
  <path d="M 234 319.398438 L 234.765625 319.398438 L 234.765625 334 L 234 334 Z M 234 319.398438 "/>
</clipPath>
<clipPath id="clip4">
  <path d="M 138.269531 333.734375 L 234.78125 333.734375 L 234.78125 335.589844 L 138.269531 335.589844 Z M 138.269531 333.734375 "/>
</clipPath>
<clipPath id="clip5">
  <path d="M 234.417969 335.144531 L 138.917969 335.144531 L 138.890625 333.792969 L 234.449219 333.792969 L 234.417969 335.144531 "/>
</clipPath>
<clipPath id="clip6">
  <path d="M 234.417969 335.144531 L 138.917969 335.144531 L 138.890625 333.792969 L 234.449219 333.792969 L 234.417969 335.144531 "/>
</clipPath>
<clipPath id="clip7">
  <path d="M 138.570312 319.398438 L 234.765625 319.398438 L 234.765625 333.792969 L 138.570312 333.792969 Z M 138.570312 319.398438 "/>
</clipPath>
<clipPath id="clip8">
  <path d="M 234.449219 333.792969 L 138.890625 333.792969 L 138.570312 319.398438 L 234.765625 319.398438 L 234.449219 333.792969 "/>
</clipPath>
<clipPath id="clip9">
  <path d="M 234.449219 333.792969 L 138.890625 333.792969 L 138.570312 319.398438 L 234.765625 319.398438 L 234.449219 333.792969 "/>
</clipPath>
<linearGradient id="linear0" gradientUnits="userSpaceOnUse" x1="0.0857361" y1="0" x2="1.000028" y2="0" gradientTransform="matrix(0,-15.743771,15.775953,0,186.66814,335.143671)">
<stop offset="0" style="stop-color:rgb(19.198608%,19.198608%,19.198608%);stop-opacity:1;"/>
<stop offset="0.015625" style="stop-color:rgb(19.099426%,19.099426%,19.099426%);stop-opacity:1;"/>
<stop offset="0.03125" style="stop-color:rgb(18.901062%,18.901062%,18.901062%);stop-opacity:1;"/>
<stop offset="0.0625" style="stop-color:rgb(18.798828%,18.798828%,18.798828%);stop-opacity:1;"/>
<stop offset="0.078125" style="stop-color:rgb(18.702698%,18.702698%,18.702698%);stop-opacity:1;"/>
<stop offset="0.09375" style="stop-color:rgb(18.505859%,18.505859%,18.505859%);stop-opacity:1;"/>
<stop offset="0.109375" style="stop-color:rgb(18.304443%,18.304443%,18.304443%);stop-opacity:1;"/>
<stop offset="0.125" style="stop-color:rgb(18.103027%,18.103027%,18.103027%);stop-opacity:1;"/>
<stop offset="0.15625" style="stop-color:rgb(18.000793%,18.000793%,18.000793%);stop-opacity:1;"/>
<stop offset="0.1875" style="stop-color:rgb(17.803955%,17.803955%,17.803955%);stop-opacity:1;"/>
<stop offset="0.21875" style="stop-color:rgb(17.456055%,17.456055%,17.456055%);stop-opacity:1;"/>
<stop offset="0.234375" style="stop-color:rgb(17.202759%,17.202759%,17.202759%);stop-opacity:1;"/>
<stop offset="0.25" style="stop-color:rgb(17.002869%,17.002869%,17.002869%);stop-opacity:1;"/>
<stop offset="0.28125" style="stop-color:rgb(16.900635%,16.900635%,16.900635%);stop-opacity:1;"/>
<stop offset="0.3125" style="stop-color:rgb(16.703796%,16.703796%,16.703796%);stop-opacity:1;"/>
<stop offset="0.328125" style="stop-color:rgb(16.407776%,16.407776%,16.407776%);stop-opacity:1;"/>
<stop offset="0.34375" style="stop-color:rgb(16.204834%,16.204834%,16.204834%);stop-opacity:1;"/>
<stop offset="0.375" style="stop-color:rgb(16.101074%,16.101074%,16.101074%);stop-opacity:1;"/>
<stop offset="0.390625" style="stop-color:rgb(15.99884%,15.99884%,15.99884%);stop-opacity:1;"/>
<stop offset="0.40625" style="stop-color:rgb(15.79895%,15.79895%,15.79895%);stop-opacity:1;"/>
<stop offset="0.4375" style="stop-color:rgb(15.50293%,15.50293%,15.50293%);stop-opacity:1;"/>
<stop offset="0.453125" style="stop-color:rgb(15.206909%,15.206909%,15.206909%);stop-opacity:1;"/>
<stop offset="0.46875" style="stop-color:rgb(15.005493%,15.005493%,15.005493%);stop-opacity:1;"/>
<stop offset="0.5" style="stop-color:rgb(14.901733%,14.901733%,14.901733%);stop-opacity:1;"/>
<stop offset="0.515625" style="stop-color:rgb(14.797974%,14.797974%,14.797974%);stop-opacity:1;"/>
<stop offset="0.53125" style="stop-color:rgb(14.598083%,14.598083%,14.598083%);stop-opacity:1;"/>
<stop offset="0.5625" style="stop-color:rgb(14.302063%,14.302063%,14.302063%);stop-opacity:1;"/>
<stop offset="0.59375" style="stop-color:rgb(14.102173%,14.102173%,14.102173%);stop-opacity:1;"/>
<stop offset="0.609375" style="stop-color:rgb(13.999939%,13.999939%,13.999939%);stop-opacity:1;"/>
<stop offset="0.625" style="stop-color:rgb(13.801575%,13.801575%,13.801575%);stop-opacity:1;"/>
<stop offset="0.640625" style="stop-color:rgb(13.600159%,13.600159%,13.600159%);stop-opacity:1;"/>
<stop offset="0.65625" style="stop-color:rgb(13.397217%,13.397217%,13.397217%);stop-opacity:1;"/>
<stop offset="0.6875" style="stop-color:rgb(13.101196%,13.101196%,13.101196%);stop-opacity:1;"/>
<stop offset="0.71875" style="stop-color:rgb(12.902832%,12.902832%,12.902832%);stop-opacity:1;"/>
<stop offset="0.734375" style="stop-color:rgb(12.800598%,12.800598%,12.800598%);stop-opacity:1;"/>
<stop offset="0.75" style="stop-color:rgb(12.600708%,12.600708%,12.600708%);stop-opacity:1;"/>
<stop offset="0.8125" style="stop-color:rgb(12.348938%,12.348938%,12.348938%);stop-opacity:1;"/>
<stop offset="0.828125" style="stop-color:rgb(12.101746%,12.101746%,12.101746%);stop-opacity:1;"/>
<stop offset="0.84375" style="stop-color:rgb(11.903381%,11.903381%,11.903381%);stop-opacity:1;"/>
<stop offset="0.859375" style="stop-color:rgb(11.701965%,11.701965%,11.701965%);stop-opacity:1;"/>
<stop offset="0.875" style="stop-color:rgb(11.500549%,11.500549%,11.500549%);stop-opacity:1;"/>
<stop offset="0.890625" style="stop-color:rgb(11.299133%,11.299133%,11.299133%);stop-opacity:1;"/>
<stop offset="0.90625" style="stop-color:rgb(11.097717%,11.097717%,11.097717%);stop-opacity:1;"/>
<stop offset="0.9375" style="stop-color:rgb(10.998535%,10.998535%,10.998535%);stop-opacity:1;"/>
<stop offset="0.953125" style="stop-color:rgb(10.900879%,10.900879%,10.900879%);stop-opacity:1;"/>
<stop offset="0.96875" style="stop-color:rgb(10.702515%,10.702515%,10.702515%);stop-opacity:1;"/>
<stop offset="0.984375" style="stop-color:rgb(10.501099%,10.501099%,10.501099%);stop-opacity:1;"/>
<stop offset="1" style="stop-color:rgb(10.299683%,10.299683%,10.299683%);stop-opacity:1;"/>
</linearGradient>
<clipPath id="clip10">
  <path d="M 134.867188 196.226562 L 238.46875 196.226562 L 238.46875 324.03125 L 134.867188 324.03125 Z M 134.867188 196.226562 "/>
</clipPath>
<clipPath id="clip11">
  <path d="M 234.765625 324.03125 L 138.570312 324.03125 L 134.867188 196.226562 L 238.46875 196.226562 Z M 234.765625 324.03125 "/>
</clipPath>
<clipPath id="clip12">
  <path d="M 234.765625 324.03125 L 138.570312 324.03125 L 134.867188 196.226562 L 238.46875 196.226562 L 234.765625 324.03125 "/>
</clipPath>
<linearGradient id="linear1" gradientUnits="userSpaceOnUse" x1="0.0000034931" y1="0" x2="1.000003" y2="0" gradientTransform="matrix(0,-127.802373,128.063611,0,186.66907,324.03042)">
<stop offset="0" style="stop-color:rgb(19.999695%,19.999695%,19.999695%);stop-opacity:1;"/>
<stop offset="0.5" style="stop-color:rgb(19.999695%,19.999695%,19.999695%);stop-opacity:1;"/>
<stop offset="0.625" style="stop-color:rgb(19.999695%,19.999695%,19.999695%);stop-opacity:1;"/>
<stop offset="0.6875" style="stop-color:rgb(19.999695%,19.999695%,19.999695%);stop-opacity:1;"/>
<stop offset="0.71875" style="stop-color:rgb(19.900513%,19.900513%,19.900513%);stop-opacity:1;"/>
<stop offset="0.75" style="stop-color:rgb(19.700623%,19.700623%,19.700623%);stop-opacity:1;"/>
<stop offset="0.78125" style="stop-color:rgb(19.595337%,19.595337%,19.595337%);stop-opacity:1;"/>
<stop offset="0.796875" style="stop-color:rgb(19.396973%,19.396973%,19.396973%);stop-opacity:1;"/>
<stop offset="0.8125" style="stop-color:rgb(19.006348%,19.006348%,19.006348%);stop-opacity:1;"/>
<stop offset="0.828125" style="stop-color:rgb(18.803406%,18.803406%,18.803406%);stop-opacity:1;"/>
<stop offset="0.84375" style="stop-color:rgb(18.600464%,18.600464%,18.600464%);stop-opacity:1;"/>
<stop offset="0.851563" style="stop-color:rgb(18.212891%,18.212891%,18.212891%);stop-opacity:1;"/>
<stop offset="0.859375" style="stop-color:rgb(18.000793%,18.000793%,18.000793%);stop-opacity:1;"/>
<stop offset="0.875" style="stop-color:rgb(17.790222%,17.790222%,17.790222%);stop-opacity:1;"/>
<stop offset="0.882812" style="stop-color:rgb(17.453003%,17.453003%,17.453003%);stop-opacity:1;"/>
<stop offset="0.890625" style="stop-color:rgb(17.111206%,17.111206%,17.111206%);stop-opacity:1;"/>
<stop offset="0.898437" style="stop-color:rgb(16.897583%,16.897583%,16.897583%);stop-opacity:1;"/>
<stop offset="0.90625" style="stop-color:rgb(16.682434%,16.682434%,16.682434%);stop-opacity:1;"/>
<stop offset="0.914063" style="stop-color:rgb(16.291809%,16.291809%,16.291809%);stop-opacity:1;"/>
<stop offset="0.921875" style="stop-color:rgb(15.901184%,15.901184%,15.901184%);stop-opacity:1;"/>
<stop offset="0.925781" style="stop-color:rgb(15.318298%,15.318298%,15.318298%);stop-opacity:1;"/>
<stop offset="0.929688" style="stop-color:rgb(14.930725%,14.930725%,14.930725%);stop-opacity:1;"/>
<stop offset="0.9375" style="stop-color:rgb(14.73999%,14.73999%,14.73999%);stop-opacity:1;"/>
<stop offset="0.941406" style="stop-color:rgb(14.323425%,14.323425%,14.323425%);stop-opacity:1;"/>
<stop offset="0.945312" style="stop-color:rgb(14.099121%,14.099121%,14.099121%);stop-opacity:1;"/>
<stop offset="0.949219" style="stop-color:rgb(13.893127%,13.893127%,13.893127%);stop-opacity:1;"/>
<stop offset="0.953125" style="stop-color:rgb(13.687134%,13.687134%,13.687134%);stop-opacity:1;"/>
<stop offset="0.960937" style="stop-color:rgb(13.493347%,13.493347%,13.493347%);stop-opacity:1;"/>
<stop offset="0.964844" style="stop-color:rgb(12.911987%,12.911987%,12.911987%);stop-opacity:1;"/>
<stop offset="0.96875" style="stop-color:rgb(12.524414%,12.524414%,12.524414%);stop-opacity:1;"/>
<stop offset="0.976563" style="stop-color:rgb(12.37793%,12.37793%,12.37793%);stop-opacity:1;"/>
<stop offset="0.980469" style="stop-color:rgb(11.81488%,11.81488%,11.81488%);stop-opacity:1;"/>
<stop offset="0.984375" style="stop-color:rgb(11.399841%,11.399841%,11.399841%);stop-opacity:1;"/>
<stop offset="0.988281" style="stop-color:rgb(11.18927%,11.18927%,11.18927%);stop-opacity:1;"/>
<stop offset="0.992188" style="stop-color:rgb(10.980225%,10.980225%,10.980225%);stop-opacity:1;"/>
<stop offset="0.996094" style="stop-color:rgb(10.5896%,10.5896%,10.5896%);stop-opacity:1;"/>
<stop offset="1" style="stop-color:rgb(10.198975%,10.198975%,10.198975%);stop-opacity:1;"/>
</linearGradient>
<clipPath id="clip13">
  <path d="M 54.75 187.410156 L 320.25 187.410156 L 320.25 202 L 54.75 202 Z M 54.75 187.410156 "/>
</clipPath>
<clipPath id="clip14">
  <path d="M 54.75 32.464844 L 320 32.464844 L 320 195 L 54.75 195 Z M 54.75 32.464844 "/>
</clipPath>
<clipPath id="clip15">
  <path d="M 145.554688 215.796875 L 229.546875 215.796875 L 229.546875 303.546875 L 145.554688 303.546875 Z M 145.554688 215.796875 "/>
</clipPath>
<clipPath id="clip16">
  <path d="M 138.941406 63.703125 L 235.691406 63.703125 L 235.691406 160.453125 L 138.941406 160.453125 Z M 138.941406 63.703125 "/>
</clipPath>
</defs>
<g id="surface1">
<rect x="0" y="0" width="375" height="374.999991" style="fill:rgb(100%,100%,100%);fill-opacity:1;stroke:none;"/>
<rect x="0" y="0" width="375" height="374.999991" style="fill:rgb(100%,100%,100%);fill-opacity:1;stroke:none;"/>
<rect x="0" y="0" width="375" height="374.999991" style="fill:rgb(12.939453%,54.119873%,65.098572%);fill-opacity:1;stroke:none;"/>
<g clip-path="url(#clip1)" clip-rule="nonzero">
<path style=" stroke:none;fill-rule:nonzero;fill:rgb(10.198975%,10.198975%,10.198975%);fill-opacity:1;" d="M 107.734375 341.625 L 266.421875 341.625 L 266.421875 333.792969 L 107.734375 333.792969 Z M 107.734375 341.625 "/>
</g>
<path style=" stroke:none;fill-rule:nonzero;fill:rgb(19.999695%,19.999695%,19.999695%);fill-opacity:1;" d="M 266.421875 333.792969 L 107.734375 333.792969 L 117.066406 314.769531 L 257.09375 314.769531 L 266.421875 333.792969 "/>
<path style=" stroke:none;fill-rule:nonzero;fill:rgb(19.999695%,19.999695%,19.999695%);fill-opacity:1;" d="M 234.765625 319.421875 L 234.765625 319.398438 L 138.570312 319.398438 L 234.765625 319.398438 L 234.765625 319.421875 "/>
<g clip-path="url(#clip2)" clip-rule="nonzero">
<path style=" stroke:none;fill-rule:nonzero;fill:rgb(10.198975%,10.198975%,10.198975%);fill-opacity:1;" d="M 234.417969 335.144531 L 234.449219 333.792969 L 234.453125 333.792969 L 234.417969 335.144531 "/>
</g>
<g clip-path="url(#clip3)" clip-rule="nonzero">
<path style=" stroke:none;fill-rule:nonzero;fill:rgb(19.999695%,19.999695%,19.999695%);fill-opacity:1;" d="M 234.453125 333.792969 L 234.449219 333.792969 L 234.765625 319.398438 L 234.765625 319.421875 L 234.453125 333.792969 "/>
</g>
<g clip-path="url(#clip4)" clip-rule="nonzero">
<g clip-path="url(#clip5)" clip-rule="nonzero">
<g clip-path="url(#clip6)" clip-rule="nonzero">
<path style=" stroke:none;fill-rule:nonzero;fill:rgb(10.198975%,10.198975%,10.198975%);fill-opacity:1;" d="M 138.890625 335.144531 L 234.449219 335.144531 L 234.449219 333.792969 L 138.890625 333.792969 Z M 138.890625 335.144531 "/>
</g>
</g>
</g>
<g clip-path="url(#clip7)" clip-rule="nonzero">
<g clip-path="url(#clip8)" clip-rule="nonzero">
<g clip-path="url(#clip9)" clip-rule="nonzero">
<path style=" stroke:none;fill-rule:nonzero;fill:url(#linear0);" d="M 138.570312 333.792969 L 234.765625 333.792969 L 234.765625 319.398438 L 138.570312 319.398438 Z M 138.570312 333.792969 "/>
</g>
</g>
</g>
<g clip-path="url(#clip10)" clip-rule="nonzero">
<g clip-path="url(#clip11)" clip-rule="nonzero">
<g clip-path="url(#clip12)" clip-rule="nonzero">
<path style=" stroke:none;fill-rule:nonzero;fill:url(#linear1);" d="M 134.867188 324.03125 L 238.46875 324.03125 L 238.46875 196.226562 L 134.867188 196.226562 Z M 134.867188 324.03125 "/>
</g>
</g>
</g>
<g clip-path="url(#clip13)" clip-rule="nonzero">
<path style=" stroke:none;fill-rule:nonzero;fill:rgb(10.198975%,10.198975%,10.198975%);fill-opacity:1;" d="M 320.1875 187.742188 C 320.71875 193.011719 317.4375 201.785156 314.1875 201.785156 L 60.898438 201.785156 C 57.648438 201.785156 54.367188 193.011719 54.898438 187.742188 L 320.1875 187.742188 "/>
</g>
<path style=" stroke:none;fill-rule:nonzero;fill:rgb(19.999695%,19.999695%,19.999695%);fill-opacity:1;" d="M 313.785156 193.820312 L 60.496094 193.820312 C 57.242188 193.820312 54.769531 189.027344 55.300781 183.757812 L 69.714844 40.476562 C 70.132812 36.296875 72.332031 33.234375 74.90625 33.234375 L 299.371094 33.234375 C 301.949219 33.234375 304.148438 36.296875 304.566406 40.476562 L 318.980469 183.757812 C 319.511719 189.027344 317.035156 193.820312 313.785156 193.820312 "/>
<g clip-path="url(#clip14)" clip-rule="nonzero">
<path style=" stroke:none;fill-rule:nonzero;fill:rgb(30.198669%,30.198669%,30.198669%);fill-opacity:1;" d="M 313.785156 193.820312 L 313.785156 193.34375 L 60.496094 193.34375 C 59.863281 193.34375 59.269531 193.132812 58.699219 192.742188 C 57.855469 192.148438 57.09375 191.113281 56.5625 189.796875 C 56.027344 188.476562 55.707031 186.882812 55.707031 185.1875 C 55.707031 184.730469 55.730469 184.269531 55.777344 183.804688 L 70.1875 40.523438 C 70.390625 38.507812 71.027344 36.769531 71.890625 35.566406 C 72.757812 34.359375 73.820312 33.710938 74.90625 33.710938 L 299.371094 33.710938 C 300.457031 33.710938 301.519531 34.359375 302.390625 35.566406 C 303.253906 36.769531 303.886719 38.507812 304.089844 40.523438 L 318.503906 183.804688 C 318.550781 184.269531 318.574219 184.730469 318.574219 185.1875 C 318.574219 187.449219 318.007812 189.527344 317.117188 191.011719 C 316.667969 191.753906 316.144531 192.34375 315.578125 192.742188 C 315.007812 193.132812 314.414062 193.34375 313.785156 193.34375 L 313.785156 194.300781 C 314.632812 194.300781 315.429688 194.011719 316.128906 193.523438 C 317.175781 192.785156 318.019531 191.597656 318.609375 190.152344 C 319.195312 188.710938 319.53125 187 319.53125 185.1875 C 319.53125 184.703125 319.507812 184.207031 319.457031 183.710938 L 305.042969 40.429688 C 304.828125 38.269531 304.152344 36.382812 303.171875 35.007812 C 302.191406 33.640625 300.863281 32.757812 299.371094 32.753906 L 74.90625 32.753906 C 73.417969 32.757812 72.089844 33.640625 71.113281 35.007812 C 70.125 36.382812 69.453125 38.269531 69.234375 40.429688 L 54.820312 183.710938 C 54.773438 184.207031 54.75 184.703125 54.75 185.1875 C 54.75 187.601562 55.34375 189.839844 56.34375 191.507812 C 56.84375 192.339844 57.449219 193.03125 58.148438 193.523438 C 58.847656 194.011719 59.648438 194.300781 60.496094 194.300781 L 313.785156 194.300781 L 313.785156 193.820312 "/>
</g>
<path style=" stroke:none;fill-rule:nonzero;fill:rgb(39.99939%,39.99939%,39.99939%);fill-opacity:1;" d="M 73.332031 173.914062 L 84.949219 47.832031 L 289.328125 47.832031 L 300.953125 173.914062 L 73.332031 173.914062 "/>
<path style=" stroke:none;fill-rule:nonzero;fill:rgb(36.079407%,36.079407%,36.079407%);fill-opacity:1;" d="M 301.519531 174.429688 L 73.332031 174.429688 L 73.332031 173.914062 L 73.847656 173.960938 L 73.851562 173.914062 L 300.953125 173.914062 L 289.328125 47.832031 L 289.847656 47.785156 L 301.519531 174.429688 "/>
<path style=" stroke:none;fill-rule:nonzero;fill:rgb(52.159119%,52.159119%,52.159119%);fill-opacity:1;" d="M 300.953125 173.914062 L 73.851562 173.914062 L 73.902344 173.398438 L 300.382812 173.398438 L 288.859375 48.351562 L 289.328125 48.351562 L 289.328125 47.832031 L 300.953125 173.914062 "/>
<path style=" stroke:none;fill-rule:nonzero;fill:rgb(5.879211%,5.879211%,5.879211%);fill-opacity:1;" d="M 73.332031 173.914062 L 72.8125 173.867188 L 73.5 166.40625 C 73.679688 166.351562 73.855469 166.300781 74.035156 166.246094 L 73.378906 173.398438 L 73.332031 173.398438 L 73.332031 173.914062 M 289.328125 47.832031 L 241.914062 47.832031 C 242.070312 47.660156 242.226562 47.488281 242.382812 47.316406 L 289.328125 47.316406 L 289.328125 47.832031 "/>
<path style=" stroke:none;fill-rule:nonzero;fill:rgb(12.159729%,12.159729%,12.159729%);fill-opacity:1;" d="M 73.378906 173.398438 L 74.035156 166.246094 C 74.21875 166.191406 74.390625 166.140625 74.570312 166.085938 L 73.902344 173.398438 L 73.378906 173.398438 M 288.859375 48.351562 L 241.445312 48.351562 C 241.601562 48.175781 241.757812 48.003906 241.914062 47.832031 L 289.328125 47.832031 L 288.816406 47.882812 L 288.859375 48.351562 "/>
<path style=" stroke:none;fill-rule:nonzero;fill:rgb(10.978699%,10.978699%,10.978699%);fill-opacity:1;" d="M 73.847656 173.960938 L 73.332031 173.914062 L 73.851562 173.914062 L 73.847656 173.960938 M 73.332031 173.914062 L 73.332031 173.398438 L 73.378906 173.398438 L 73.332031 173.914062 "/>
<path style=" stroke:none;fill-rule:nonzero;fill:rgb(15.689087%,15.689087%,15.689087%);fill-opacity:1;" d="M 73.851562 173.914062 L 73.332031 173.914062 L 73.378906 173.398438 L 73.902344 173.398438 L 73.851562 173.914062 "/>
<path style=" stroke:none;fill-rule:nonzero;fill:rgb(15.689087%,15.689087%,15.689087%);fill-opacity:1;" d="M 289.328125 48.351562 L 288.859375 48.351562 L 288.816406 47.882812 L 289.328125 47.832031 L 289.328125 48.351562 "/>
<path style=" stroke:none;fill-rule:nonzero;fill:rgb(28.239441%,28.239441%,28.239441%);fill-opacity:1;" d="M 57.105469 170.613281 L 70.1875 40.523438 C 70.390625 38.507812 71.027344 36.769531 71.890625 35.566406 C 72.757812 34.363281 73.816406 33.710938 74.90625 33.710938 L 254.34375 33.710938 C 250.394531 38.324219 246.414062 42.855469 242.382812 47.316406 L 84.472656 47.316406 L 73.5 166.40625 C 68.042969 168.039062 62.574219 169.441406 57.105469 170.613281 "/>
<path style=" stroke:none;fill-rule:nonzero;fill:rgb(37.249756%,37.249756%,37.249756%);fill-opacity:1;" d="M 56.613281 170.714844 L 69.714844 40.476562 C 70.132812 36.296875 72.332031 33.234375 74.90625 33.234375 L 254.753906 33.234375 C 254.621094 33.390625 254.480469 33.554688 254.34375 33.710938 L 74.90625 33.710938 C 73.816406 33.710938 72.757812 34.363281 71.890625 35.566406 C 71.027344 36.769531 70.390625 38.507812 70.1875 40.523438 L 57.105469 170.613281 C 56.9375 170.644531 56.78125 170.679688 56.613281 170.714844 "/>
<path style=" stroke:none;fill-rule:nonzero;fill:rgb(46.269226%,46.269226%,46.269226%);fill-opacity:1;" d="M 74.570312 166.085938 L 85.425781 48.351562 L 241.445312 48.351562 C 190.246094 104.773438 132.835938 148.34375 74.570312 166.085938 "/>
<path style=" stroke:none;fill-rule:nonzero;fill:rgb(15.289307%,15.289307%,15.289307%);fill-opacity:1;" d="M 73.5 166.40625 L 84.472656 47.316406 L 242.382812 47.316406 C 242.226562 47.488281 242.070312 47.660156 241.914062 47.832031 L 84.949219 47.832031 L 74.035156 166.246094 C 73.855469 166.300781 73.679688 166.351562 73.5 166.40625 "/>
<path style=" stroke:none;fill-rule:nonzero;fill:rgb(21.179199%,21.179199%,21.179199%);fill-opacity:1;" d="M 74.035156 166.246094 L 84.949219 47.832031 L 241.914062 47.832031 C 241.757812 48.003906 241.601562 48.175781 241.445312 48.351562 L 85.425781 48.351562 L 74.570312 166.085938 C 74.390625 166.140625 74.21875 166.191406 74.035156 166.246094 "/>
<g clip-path="url(#clip15)" clip-rule="nonzero">
<path style=" stroke:none;fill-rule:nonzero;fill:rgb(16.859436%,62.348938%,75.289917%);fill-opacity:1;" d="M 160.578125 262.890625 C 155.398438 270 152.511719 278.777344 154.613281 287.136719 C 155.324219 289.976562 156.625 292.648438 158.464844 294.929688 C 162.128906 298.644531 164.492188 300.433594 169.828125 301.765625 C 172.855469 302.523438 176.019531 302.730469 178.8125 302.21875 C 167.550781 302.21875 161.050781 294.933594 159.160156 285.859375 C 155.910156 270.304688 165.527344 258.761719 175.972656 249.128906 C 175.664062 249.253906 175.394531 249.382812 175.144531 249.519531 C 170.519531 252.140625 163.65625 258.667969 160.578125 262.890625 Z M 174.074219 246.40625 C 173.714844 246.570312 173.335938 246.742188 172.949219 246.917969 C 167.15625 249.617188 160.960938 253.203125 155.9375 257.792969 C 151.390625 261.953125 147.773438 267.320312 146.28125 273.28125 C 144.742188 279.421875 145.472656 286.171875 150.105469 291.511719 C 151.699219 293.34375 153.710938 294.882812 156.175781 296.011719 L 156.195312 296.023438 C 138.410156 275.628906 156.484375 256.328125 174.074219 246.40625 Z M 181.695312 219.949219 C 182.6875 225.582031 181.828125 237.566406 179.632812 243.109375 C 179.144531 244.324219 178.667969 245.078125 178.300781 245.207031 C 178.601562 245.234375 179.132812 245.007812 179.664062 244.691406 C 185.144531 241.453125 185.59375 225.535156 181.695312 219.949219 Z M 192.054688 245.414062 L 192.039062 245.355469 C 191.636719 244.320312 191.371094 241.828125 191.179688 238.765625 C 190.984375 235.648438 190.871094 231.992188 190.761719 228.632812 C 190.640625 224.863281 190.90625 219.875 188.390625 217.40625 C 186.980469 216.011719 185.074219 215.632812 183.203125 215.855469 C 182.257812 215.964844 181.324219 216.226562 180.464844 216.585938 C 179.933594 216.808594 179.464844 217.0625 179.097656 217.328125 C 179.023438 217.382812 178.945312 217.441406 178.875 217.503906 C 186.414062 216.449219 187.6875 219.199219 188.1875 224.3125 C 188.707031 229.570312 188.371094 237.28125 190.125 242.238281 C 190.371094 242.941406 191.359375 244.859375 191.921875 245.316406 C 191.933594 245.320312 192.054688 245.414062 192.054688 245.414062 Z M 208.460938 300.355469 C 209.695312 300.230469 210.921875 300.035156 212.136719 299.757812 C 220.292969 297.511719 225.238281 293.429688 227.625 288.539062 C 235.085938 273.261719 219.296875 257.359375 206.136719 251.675781 C 202.117188 249.941406 197.722656 248.644531 193.082031 247.859375 C 195.453125 248.546875 197.859375 249.632812 200.15625 250.542969 C 212.414062 255.375 226.210938 266.5625 225.347656 281.097656 C 224.953125 287.691406 221.1875 293.710938 213.746094 297.664062 C 212.230469 298.464844 210.488281 299.324219 208.460938 300.355469 Z M 185.613281 256.875 C 185.367188 257.578125 185.09375 258.289062 184.816406 259.015625 C 184.515625 259.8125 184.230469 260.585938 183.960938 261.351562 C 179.464844 273.941406 171.015625 303.105469 190.394531 303.542969 C 191.441406 303.566406 192.527344 303.507812 193.625 303.363281 C 194.710938 303.222656 195.808594 303.003906 196.898438 302.703125 C 197.882812 302.429688 198.863281 302.089844 199.816406 301.691406 C 202.265625 300.664062 205.882812 298.285156 207.671875 296.324219 C 213.386719 290.085938 213.601562 281.875 210.414062 274.257812 C 207.316406 266.867188 201.472656 259.914062 196.597656 256.371094 C 195.191406 255.351562 194.035156 254.621094 193.914062 254.3125 C 194.015625 255.46875 198.914062 259.765625 201.011719 263.183594 C 204.832031 269.417969 207.25 275.765625 207.707031 280.433594 C 208.972656 293.449219 198.917969 299.296875 191.679688 298.492188 C 182.015625 297.417969 182.445312 288.472656 182.46875 280.4375 C 182.492188 271.355469 184.742188 261.238281 185.613281 256.875 "/>
</g>
<g clip-path="url(#clip16)" clip-rule="nonzero">
<path style=" stroke:none;fill-rule:nonzero;fill:rgb(25.099182%,23.529053%,22.749329%);fill-opacity:1;" d="M 187.316406 63.703125 C 160.597656 63.703125 138.941406 85.359375 138.941406 112.078125 C 138.941406 138.792969 160.597656 160.453125 187.316406 160.453125 C 214.035156 160.453125 235.691406 138.792969 235.691406 112.078125 C 235.691406 85.359375 214.035156 63.703125 187.316406 63.703125 Z M 187.316406 153.007812 C 164.75 153.007812 146.382812 134.644531 146.382812 112.078125 C 146.382812 89.507812 164.75 71.144531 187.316406 71.144531 C 209.882812 71.144531 228.246094 89.507812 228.246094 112.078125 C 228.246094 134.644531 209.882812 153.007812 187.316406 153.007812 Z M 187.316406 153.007812 "/>
</g>
<path style=" stroke:none;fill-rule:nonzero;fill:rgb(25.099182%,23.529053%,22.749329%);fill-opacity:1;" d="M 213.363281 112.078125 L 172.429688 89.75 L 172.429688 134.402344 Z M 213.363281 112.078125 "/>
</g>
</svg>
