<?xml version="1.0" encoding="UTF-8" standalone="no"?>
<svg
   id="Ebene_3"
   data-name="Ebene 3"
   viewBox="0 0 99.999999 100"
   version="1.1"
   sodipodi:docname="Garlic_player_Logo.svg"
   width="100"
   height="100"
   inkscape:version="1.2.1 (9c6d41e410, 2022-07-14, custom)"
   xmlns:inkscape="http://www.inkscape.org/namespaces/inkscape"
   xmlns:sodipodi="http://sodipodi.sourceforge.net/DTD/sodipodi-0.dtd"
   xmlns="http://www.w3.org/2000/svg"
   xmlns:svg="http://www.w3.org/2000/svg">
  <sodipodi:namedview
     id="namedview60"
     pagecolor="#ffffff"
     bordercolor="#666666"
     borderopacity="1.0"
     inkscape:showpageshadow="2"
     inkscape:pageopacity="0.0"
     inkscape:pagecheckerboard="0"
     inkscape:deskcolor="#d1d1d1"
     showgrid="true"
     showguides="true"
     inkscape:lockguides="false"
     inkscape:zoom="7.212345"
     inkscape:cx="61.422464"
     inkscape:cy="53.588673"
     inkscape:window-width="2733"
     inkscape:window-height="1360"
     inkscape:window-x="2842"
     inkscape:window-y="209"
     inkscape:window-maximized="0"
     inkscape:current-layer="Ebene_3">
    <inkscape:grid
       type="xygrid"
       id="grid3889"
       spacingx="0.1"
       spacingy="0.1" />
  </sodipodi:namedview>
  <defs
     id="defs7">
    <style
       id="style2">.cls-1,.cls-3,.cls-5,.cls-6,.cls-7,.cls-8{fill:none;}.cls-2{clip-path:url(#clip-path);}.cls-3,.cls-5,.cls-6,.cls-7,.cls-8{stroke:#4169e1;}.cls-3{stroke-width:1.5px;}.cls-4{fill:#4169e1;}.cls-5,.cls-7,.cls-8{stroke-linecap:round;}.cls-5,.cls-6,.cls-7,.cls-8{stroke-linejoin:round;}.cls-5{stroke-width:0.28px;}.cls-6,.cls-7{stroke-width:1.121px;}.cls-8{stroke-width:0.561px;}</style>
    <clipPath
       id="clip-path">
      <rect
         class="cls-1"
         x="19.083191"
         y="14.9336"
         width="209.306"
         height="65.976997"
         id="rect4" />
    </clipPath>
    <clipPath
       id="clip-path-3">
      <rect
         class="cls-1"
         x="-16.047319"
         y="19.140511"
         width="174.49699"
         height="79.752998"
         id="rect3893" />
    </clipPath>
    <clipPath
       id="clipPath4439">
      <rect
         class="cls-1"
         x="-16.047319"
         y="19.140511"
         width="174.49699"
         height="79.752998"
         id="rect4437" />
    </clipPath>
  </defs>
  <g
     id="g4939"
     transform="matrix(1.3092352,0,0,1.3088058,-14.381647,-14.859855)"
     style="stroke-width:0.763929">
    <g
       class="cls-2"
       clip-path="url(#clip-path)"
       id="g3902"
       transform="translate(-21.772672,5.6944844)"
       style="stroke-width:0.763929">
      <path
         class="cls-3"
         d="m 66.33658,36.12891 c 0,0 -13.657,-0.636 -17.76,10.491 0,0 -3.986,12.109 9.395,18.799 a 31.43568,31.43568 0 0 0 27.091,-0.636 16.99087,16.99087 0 0 0 6.706,-6.401 15.09924,15.09924 0 0 0 -0.666,-16.328 27.83521,27.83521 0 0 0 -6.358,-5.723 53.35187,53.35187 0 0 0 -5.15,-3.179 c -2.695,-1.452 -5.927,-2.767 -7.377,-4.175 0,0 -3.919,-3.077 -3.497,-9.697 0,0 -2.891,7.037 2.832,12.283 a 26.67986,26.67986 0 0 0 5.976,4.037 c 0.16,0.083 1.876,1.081 3.274,2.003 3.527,2.324 8.393,5.404 8.423,11.719 a 12.409,12.409 0 0 1 -2.573,7.991 16.07544,16.07544 0 0 1 -7.185,5.721 c 0,0 -8.71,3.561 -17.264,0.116 0,0 -10.774,-4.248 -9.63,-15.248 a 9.95709,9.95709 0 0 1 2.035,-4.808 19.07247,19.07247 0 0 1 11.728,-6.965"
         id="path3898"
         style="fill:#4169e1" />
      <path
         class="cls-4"
         d="m 66.33658,36.12891 c 0,0 -13.657,-0.636 -17.76,10.491 0,0 -3.986,12.109 9.395,18.799 a 31.43568,31.43568 0 0 0 27.091,-0.636 16.99087,16.99087 0 0 0 6.706,-6.401 15.09924,15.09924 0 0 0 -0.666,-16.328 27.83521,27.83521 0 0 0 -6.358,-5.723 53.35187,53.35187 0 0 0 -5.15,-3.179 c -2.695,-1.452 -5.927,-2.767 -7.377,-4.175 0,0 -3.919,-3.077 -3.497,-9.697 0,0 -2.891,7.037 2.832,12.283 a 26.67986,26.67986 0 0 0 5.976,4.037 c 0.16,0.083 1.876,1.081 3.274,2.003 3.527,2.324 8.393,5.404 8.423,11.719 a 12.409,12.409 0 0 1 -2.573,7.991 16.07544,16.07544 0 0 1 -7.185,5.721 c 0,0 -8.71,3.561 -17.264,0.116 0,0 -10.774,-4.248 -9.63,-15.248 a 9.95709,9.95709 0 0 1 2.035,-4.808 19.07247,19.07247 0 0 1 11.728,-6.965 z"
         id="path3900"
         style="fill:none;stroke:#4169e1;stroke-width:0.2139px;stroke-linecap:round;stroke-linejoin:round" />
    </g>
    <rect
       class="cls-3"
       x="51.969006"
       y="51.899986"
       width="8.8529997"
       height="1.705"
       id="rect3904"
       style="fill:#4169e1" />
    <rect
       class="cls-5"
       x="51.969006"
       y="51.899986"
       width="8.8529997"
       height="1.705"
       id="rect3906"
       style="fill:none;stroke:#4169e1;stroke-width:0.856366px;stroke-linejoin:round" />
    <g
       class="cls-2"
       clip-path="url(#clip-path)"
       id="g3920"
       transform="translate(-21.772672,5.6944844)"
       style="stroke-width:0.763929">
      <path
         class="cls-3"
         d="m 48.754,36.45791 c 0,0 -9.392,5.143 -9.348,15.292 a 17.195,17.195 0 0 0 10.892,15.866 c 0,0 -9.209,-6.303 -8.83,-16.655 0,0 -0.01,-7.663 7.286,-14.503"
         id="path3908"
         style="fill:#4169e1" />
      <path
         class="cls-6"
         d="m 48.754,36.45791 c 0,0 -9.392,5.143 -9.348,15.292 a 17.195,17.195 0 0 0 10.892,15.866 c 0,0 -9.209,-6.303 -8.83,-16.655 0,-10e-6 -0.01,-7.663 7.286,-14.503 z"
         id="path3910"
         style="fill:none;stroke:#4169e1;stroke-width:0.856366px;stroke-linecap:round;stroke-linejoin:round" />
      <path
         class="cls-3"
         d="m 93.537,36.42781 c 0,0 9.254,5.387 8.944,15.531 a 17.19633,17.19633 0 0 1 -11.303,15.576 c 0,0 9.371,-6.06 9.263,-16.419 0,0 0.21,-7.659 -6.904,-14.688"
         id="path3912"
         style="fill:#4169e1" />
      <path
         class="cls-6"
         d="m 93.537,36.42781 c 0,0 9.254,5.387 8.944,15.531 a 17.19633,17.19633 0 0 1 -11.303,15.576 c 0,0 9.371,-6.06 9.263,-16.419 0,0 0.21,-7.659 -6.904,-14.688 z"
         id="path3914"
         style="fill:none;stroke:#4169e1;stroke-width:0.856366px;stroke-linecap:round;stroke-linejoin:round" />
      <path
         class="cls-3"
         d="m 70.48828,57.38281 c 0,0 -5.86,-0.459 -9.202,-4.312 0,0 -2.224,-2.092 -2.731,-7.209 -0.092,-0.923 -2.647,5.589 2.847,10.522 a 13.51163,13.51163 0 0 0 9.074,3.366 c 0,0 0,-0.233 0.012,-2.367"
         id="path3916"
         style="fill:#4169e1" />
      <path
         class="cls-7"
         d="m 70.48828,57.38281 c 0,0 -5.86,-0.459 -9.202,-4.312 0,0 -2.224,-2.092 -2.731,-7.209 -0.092,-0.923 -2.647,5.589 2.847,10.522 a 13.51163,13.51163 0 0 0 9.074,3.366 c 0,0 0,-0.23301 0.012,-2.367 z"
         id="path3918"
         style="fill:none;stroke:#4169e1;stroke-width:0.428565px;stroke-linecap:round;stroke-linejoin:round" />
    </g>
  </g>
</svg>
